<svg width="25" height="20" viewBox="0 0 25 20" fill="none" xmlns="http://www.w3.org/2000/svg">
<path fill-rule="evenodd" clip-rule="evenodd" d="M4.8822 0C3.61779 0 2.54203 0.443781 1.65491 1.33136C0.767776 2.21894 0.324219 3.29388 0.324219 4.55621C0.324219 5.81855 0.767776 6.89349 1.65491 7.78107C2.54203 8.66864 3.61779 9.11243 4.8822 9.11243C6.02426 9.11243 6.71253 9.56607 6.94706 10.4734C7.18159 11.3807 7.06433 12.3866 6.59527 13.4911C6.12621 14.5957 5.34106 15.6016 4.2398 16.5089C3.13854 17.4162 1.83336 17.8698 0.324219 17.8698V20C3.03659 20 5.29517 18.9596 7.10001 16.8787C8.90486 14.7978 10.0826 12.5099 10.6332 10.0148C11.1838 7.51971 11.0258 5.22683 10.1591 3.13609C9.29233 1.04535 7.53339 0 4.8822 0ZM18.0361 0C16.7717 0 15.696 0.443781 14.8088 1.33136C13.9217 2.21894 13.4782 3.29388 13.4782 4.55621C13.4782 5.81855 13.9217 6.89349 14.8088 7.78107C15.696 8.66864 16.7717 9.11243 18.0361 9.11243C19.1782 9.11243 19.8716 9.56607 20.1163 10.4734C20.361 11.3807 20.2438 12.3866 19.7645 13.4911C19.2852 14.5957 18.5001 15.6016 17.409 16.5089C16.318 17.4162 15.0077 17.8698 13.4782 17.8698V20C16.1905 20 18.4491 18.9596 20.254 16.8787C22.0588 14.7978 23.2365 12.5099 23.7872 10.0148C24.3378 7.51971 24.1797 5.22683 23.313 3.13609C22.4463 1.04535 20.6873 0 18.0361 0Z" fill="#000"/>
</svg>
